<svg xmlns="http://www.w3.org/2000/svg" width="69.131" height="31.736" viewBox="0 0 69.131 31.736"><g fill="#3a68b9"><path d="M24.3 2.327a15.588 15.588 0 0 1 5.8 5.6 15.568 15.568 0 0 1 2.1 8.1 16.039 16.039 0 0 1-2.1 8.1 14.86 14.86 0 0 1-5.8 5.6 15.47 15.47 0 0 1-8.1 2 17.644 17.644 0 0 1-8.1-2 15.867 15.867 0 0 1-5.9-5.6 15.073 15.073 0 0 1-2.2-8 15.171 15.171 0 0 1 2.2-8.1 15.117 15.117 0 0 1 5.8-5.7 16.482 16.482 0 0 1 8.1-2 17.743 17.743 0 0 1 8.2 2Zm-12.7 8.8a7.161 7.161 0 0 0-1.6 5 7.331 7.331 0 0 0 1.6 5 5.879 5.879 0 0 0 4.6 1.8 5.66 5.66 0 0 0 4.5-1.8 7.161 7.161 0 0 0 1.6-5 7.161 7.161 0 0 0-1.6-5 5.8 5.8 0 0 0-4.5-1.8 5.28 5.28 0 0 0-4.6 1.8Z"/><path d="M54.3 24.027a13.737 13.737 0 0 1-5.7 5.5 18.521 18.521 0 0 1-8.6 2.1H26.9V.827H40a17.283 17.283 0 0 1 8.6 2 13.506 13.506 0 0 1 5.7 5.4 15.483 15.483 0 0 1 2 7.9 16.55 16.55 0 0 1-2 7.9Zm-9.9-2.8a6.568 6.568 0 0 0 1.9-5.1 6.568 6.568 0 0 0-1.9-5.1 7.566 7.566 0 0 0-5.3-1.8h-2.3v13.7h2.3a7.086 7.086 0 0 0 5.3-1.7Z"/></g><path fill="#3a68b9" d="M66.531.7a4.36 4.36 0 0 1 1.9 1.9 5.189 5.189 0 0 1 .7 2.7 4.953 4.953 0 0 1-.7 2.7 5.752 5.752 0 0 1-1.9 1.9 4.845 4.845 0 0 1-2.6.7 5.443 5.443 0 0 1-2.7-.7 4.36 4.36 0 0 1-1.9-1.9 5.189 5.189 0 0 1-.7-2.7 4.953 4.953 0 0 1 .7-2.7 5.752 5.752 0 0 1 1.9-1.9 4.953 4.953 0 0 1 2.7-.7 5.09 5.09 0 0 1 2.6.7Zm-4.2 2.9a2.155 2.155 0 0 0-.5 1.7 3.371 3.371 0 0 0 .5 1.7 1.717 1.717 0 0 0 1.5.6 2.035 2.035 0 0 0 1.5-.6 2.155 2.155 0 0 0 .5-1.7 3.371 3.371 0 0 0-.5-1.7 2.035 2.035 0 0 0-1.5-.6 1.826 1.826 0 0 0-1.5.6ZM68.282 20.869h-3l-3.2-4.8v4.8h-3v-9.6h3l3.2 4.9v-4.9h3ZM62.182 24.369v1.2h3.9v2.3h-3.9v1.3h6.2v2.4h-9.2v-9.6h9.2v2.4Z"/></svg>