<svg xmlns="http://www.w3.org/2000/svg" width="51" height="51" viewBox="0 0 51 51"><defs><clipPath id="a"><path fill="#6fc4fd" d="M0 0h51v51H0z" transform="translate(.08 .08)"/></clipPath></defs><g fill="#6fc4fd" clip-path="url(#a)" transform="translate(-.08 -.08)"><path d="M25.58 0a25.609 25.609 0 1 0 18.079 7.5A25.581 25.581 0 0 0 25.58 0Zm0 48.954A23.4 23.4 0 1 1 42.1 42.1a23.374 23.374 0 0 1-16.52 6.854Z"/><path d="M26.683 25.123v-9.329a1.103 1.103 0 1 0-2.206 0v9.786a1.1 1.1 0 0 0 .323.78l7.052 7.052a1.102 1.102 0 0 0 1.559-1.559ZM25.58 8.511a1.1 1.1 0 0 0 1.1-1.1v-1.68a1.103 1.103 0 0 0-2.206 0v1.677a1.1 1.1 0 0 0 1.1 1.1M25.58 43.378a1.1 1.1 0 0 0-1.1 1.1v1.678a1.103 1.103 0 0 0 2.206 0v-1.675a1.1 1.1 0 0 0-1.1-1.1M7.044 24.843H5.366a1.103 1.103 0 0 0 0 2.205h1.678a1.103 1.103 0 1 0 0-2.205M44.117 27.047h1.677a1.103 1.103 0 0 0 0-2.205h-1.677a1.103 1.103 0 1 0 0 2.205"/></g></svg>