<svg xmlns="http://www.w3.org/2000/svg" width="50" height="50" viewBox="0 0 50 50"><g fill="#fff"><path d="M33.522 15.69H30.3v-.926a.764.764 0 0 0-1.528 0v.926h-7.524v-.926a.764.764 0 0 0-1.528 0v.926h-3.242A2.476 2.476 0 0 0 14 18.145v13.8a2.481 2.481 0 0 0 2.478 2.478h17.044A2.481 2.481 0 0 0 36 31.947v-13.8a2.476 2.476 0 0 0-2.478-2.455Zm.95 16.257a.934.934 0 0 1-.95.926H16.478a.949.949 0 0 1-.95-.926v-9.819h18.92v9.819Zm0-11.37H15.528v-2.432a.934.934 0 0 1 .95-.926H19.7v.926a.764.764 0 0 0 1.528 0v-.926h7.526v.926a.764.764 0 1 0 1.528 0v-.926H33.5a.949.949 0 0 1 .95.926v2.431Z"/><path d="M19.141 26.76h1.783a.406.406 0 0 0 .394-.394v-1.274a.406.406 0 0 0-.394-.394h-1.783a.406.406 0 0 0-.394.394v1.274a.376.376 0 0 0 .394.394ZM24.12 26.76h1.783a.406.406 0 0 0 .394-.394v-1.274a.406.406 0 0 0-.394-.394H24.12a.406.406 0 0 0-.394.394v1.274a.377.377 0 0 0 .394.394ZM29.076 26.76h1.783a.406.406 0 0 0 .394-.394v-1.274a.406.406 0 0 0-.394-.394h-1.783a.406.406 0 0 0-.394.394v1.274a.406.406 0 0 0 .394.394ZM19.141 30.372h1.783a.406.406 0 0 0 .394-.394v-1.274a.406.406 0 0 0-.394-.394h-1.783a.406.406 0 0 0-.394.394v1.274a.376.376 0 0 0 .394.394ZM24.12 30.372h1.783a.406.406 0 0 0 .394-.394v-1.274a.406.406 0 0 0-.394-.394H24.12a.406.406 0 0 0-.394.394v1.274a.377.377 0 0 0 .394.394ZM29.076 30.372h1.783a.406.406 0 0 0 .394-.394v-1.274a.406.406 0 0 0-.394-.394h-1.783a.406.406 0 0 0-.394.394v1.274a.406.406 0 0 0 .394.394Z"/></g><g fill="none" stroke="#68d1ff"><circle cx="25" cy="25" r="25" stroke="none"/><circle cx="25" cy="25" r="24.5"/></g></svg>