<svg xmlns="http://www.w3.org/2000/svg" width="22.542" height="17.005" viewBox="0 0 22.542 17.005"><path fill="#fff" d="M4.235 17.005h14.073a4.226 4.226 0 0 0 4.235-4.235V4.235A4.226 4.226 0 0 0 18.308 0H4.235A4.226 4.226 0 0 0 0 4.235v8.535a4.226 4.226 0 0 0 4.235 4.235Zm0-15.05h14.073a2.339 2.339 0 0 1 2.052 1.27l-7.981 4.463a2.239 2.239 0 0 1-2.215 0L2.183 3.225a2.3 2.3 0 0 1 2.052-1.27Zm-2.28 3.388 7.264 4.072a4.249 4.249 0 0 0 4.137 0l7.264-4.072v7.427a2.266 2.266 0 0 1-2.28 2.28H4.235a2.266 2.266 0 0 1-2.28-2.28Z"/></svg>