<svg xmlns="http://www.w3.org/2000/svg" xmlns:xlink="http://www.w3.org/1999/xlink" width="16" height="16" viewBox="0 0 16 16">
  <defs>
    <clipPath id="clip-FAV">
      <rect width="16" height="16"/>
    </clipPath>
  </defs>
  <g id="FAV" clip-path="url(#clip-FAV)">
    <rect width="16" height="16" fill="#fff"/>
    <g id="FAV-2" data-name="FAV" transform="translate(1 1)">
      <path id="Path_4" data-name="Path 4" d="M44.972,4.377a.066.066,0,0,1-.029,0,.069.069,0,0,1-.025-.015.33.33,0,0,1-.181-.127c-.127-.217-.09-.235.542-.8l.452-.38c-1.175.705-1.193.687-1.32.651a.289.289,0,0,1-.163-.127c-.127-.217-.09-.235.6-.832l.506-.416c-.814.47-.832.47-.94.434a.33.33,0,0,1-.181-.127c-.09-.163-.108-.2.651-.994-.362.2-.38.2-.47.181a.263.263,0,0,1-.181-.127c-.09-.09-.09-.09.09-.741A2.617,2.617,0,0,0,44.412.6c-.054.018-.181-.181.036-.253.163-.072.362-.217.506.018.054.108.072.108-.072.651L45.225.8C46.274.182,46.274.182,46.4.218a.33.33,0,0,1,.181.127c.108.181.108.181-.651,1.012l.181-.108C47.937.164,47.937.164,48.082.218a.289.289,0,0,1,.163.127c.127.217.09.235-.615.832l-.506.416c.9-.524.922-.524,1.031-.488a.289.289,0,0,1,.163.127c.127.217.09.235-.542.777l-.434.38c.687-.4.705-.38.814-.362a.289.289,0,0,1,.163.127c.09.163.108.181-.506.922.235-.127.253-.108.344-.108a.289.289,0,0,1,.2.344.236.236,0,0,1-.163.181c-.054.018-.434.253-.705.416-.814.488-.814.488-.94.452a.33.33,0,0,1-.181-.127c-.09-.163-.108-.181.524-.922l-.217.127a8.444,8.444,0,0,1-1.7.94" transform="translate(-44.171 4.8)" fill="#006495"/>
      <path id="Path_2" data-name="Path 2" d="M99.2.777A.772.772,0,0,1,99.976,0h2.35a.772.772,0,0,1,.777.777v2.35a.772.772,0,0,1-.777.777h-2.35a.772.772,0,0,1-.777-.777Z" transform="translate(-89.25 5)" fill="#38bfc4"/>
      <path id="Path_1" data-name="Path 1" d="M72.605.471l.271-.108A1.849,1.849,0,0,1,73.961.091c.127.018.307.145.036.56.018,0,.127-.054.145-.054C74.9.236,75.173.109,75.263.073A.362.362,0,0,1,75.5.109a.322.322,0,0,1,.127.09c.145.145.181.217-.127.6.018.054-.217.325-.217.4.452-.271.47-.108.506-.018a.322.322,0,0,1,.09.127c.054.2.036.307-.271.687,0,.054-.217.307-.217.362.344-.108.344-.018.4.054a.478.478,0,0,1,.09.108c.054.145.054.181-.253.56.127-.054.217.163.108.253-.018.018-.145.108-.145.127.145-.072.181.108.09.145a10.452,10.452,0,0,1-1.229.524c-.271.036-.506-.217-.2-.524.018-.018-.163.072-.2.072a4.049,4.049,0,0,1-1.32.47H72.7a.165.165,0,0,1-.145-.072c-.108-.108-.127-.127.145-.416-.036-.018.145-.235.108-.253-.687.289-.759.181-.832.054a.478.478,0,0,1-.09-.108c-.054-.108-.054-.289.307-.669l.253-.362c-.4.163-.416.054-.47-.072a.544.544,0,0,1-.09-.127c-.054-.217-.054-.344.325-.814-.181.072-.2.036-.235.036a.218.218,0,0,1-.09-.09c-.036-.108-.018-.181.108-.542.018-.018.072-.235.09-.253a.264.264,0,0,1,.524.018" transform="translate(-66.85 4.933)" fill="#1d8dcc"/>
    </g>
  </g>
</svg>
