<svg xmlns="http://www.w3.org/2000/svg" width="20" height="20" viewBox="0 0 20 20"><defs><clipPath id="a"><path fill="#fff" d="M0 0h20v20H0z"/></clipPath></defs><g clip-path="url(#a)"><path fill="#fff" fill-rule="evenodd" d="M18.226 17.561v1.33a1.109 1.109 0 0 1-2.217 0v-1.33a2.882 2.882 0 0 1 0-5.321V1.109a1.109 1.109 0 0 1 2.217 0v11.108a2.9 2.9 0 0 1 0 5.344Zm-1.109-3.792a1.109 1.109 0 1 0 1.109 1.109 1.1 1.1 0 0 0-1.109-1.109m-6.008-5.194v10.316a1.109 1.109 0 0 1-2.217 0V8.575a2.882 2.882 0 0 1 0-5.321V1.131a1.109 1.109 0 0 1 2.217 0v2.122a2.882 2.882 0 0 1 0 5.321M10 4.783a1.109 1.109 0 1 0 1.109 1.109A1.1 1.1 0 0 0 10 4.783m-6.009 7.878v6.231a1.109 1.109 0 0 1-2.217 0v-6.231a2.882 2.882 0 0 1 0-5.321V1.109a1.109 1.109 0 1 1 2.217 0v6.23a2.882 2.882 0 0 1 0 5.321M2.883 8.891A1.109 1.109 0 1 0 3.991 10a1.1 1.1 0 0 0-1.108-1.109"/></g></svg>