<svg xmlns="http://www.w3.org/2000/svg" width="154" height="65.736" viewBox="0 0 154 65.736"><defs><clipPath id="a"><path fill="none" d="M0 0h154v48H0z" transform="translate(0 .125)"/></clipPath></defs><g clip-path="url(#a)" transform="translate(0 -.125)"><path fill="#1d8dcc" d="m66.358 2.002 1.317-.528c2.898-1.492 4.654-1.4 5.268-1.316s1.493.7.176 2.722c.088 0 .615-.263.7-.263C77.51.86 78.827.246 79.263.074a1.757 1.757 0 0 1 1.142.176 1.565 1.565 0 0 1 .615.439c.7.7.878 1.054-.615 2.9.088.263-1.054 1.581-1.054 1.932 2.2-1.317 2.283-.527 2.459-.088a1.566 1.566 0 0 1 .439.615c.263.966.176 1.493-1.317 3.337 0 .263-1.054 1.493-1.054 1.756 1.668-.527 1.668-.088 1.932.263a2.322 2.322 0 0 1 .439.527c.263.7.263.878-1.229 2.722.615-.263 1.054.79.527 1.229-.088.088-.7.527-.7.615.7-.351.878.527.439.7a50.767 50.767 0 0 1-5.971 2.546c-1.317.176-2.459-1.054-.966-2.546.088-.088-.79.351-.966.351-4.215 1.932-5.708 2.283-6.41 2.283h-.176a.8.8 0 0 1-.7-.351c-.527-.527-.615-.615.7-2.02-.176-.088.7-1.142.527-1.229-3.337 1.4-3.688.878-4.039.263a2.321 2.321 0 0 1-.439-.527c-.263-.527-.263-1.4 1.493-3.249l1.224-1.76c-1.932.79-2.02.263-2.283-.351a2.642 2.642 0 0 1-.439-.615c-.263-1.054-.263-1.668 1.581-3.951-.878.351-.966.176-1.142.176a1.058 1.058 0 0 1-.439-.439c-.176-.527-.088-.878.527-2.634.088-.088.351-1.142.439-1.229a1.282 1.282 0 0 1 2.546.088"/><path fill="#38bfc4" d="M86.729 3.758a3.749 3.749 0 0 1 3.775-3.776h11.415a3.749 3.749 0 0 1 3.776 3.776v11.415a3.748 3.748 0 0 1-3.776 3.776H90.504a3.749 3.749 0 0 1-3.775-3.776ZM139.239 42.569a6.378 6.378 0 0 1-2.546.615 5.571 5.571 0 0 1-4.127-1.756 6.4 6.4 0 0 1-1.67-4.389 5.756 5.756 0 0 1 1.668-4.39 5.571 5.571 0 0 1 4.127-1.756 5.264 5.264 0 0 1 4.216 1.846 7.506 7.506 0 0 1 1.581 5.093 5.486 5.486 0 0 1-3.249 4.742m-52.334 0a6.378 6.378 0 0 1-2.546.615 5.571 5.571 0 0 1-4.127-1.756 6.392 6.392 0 0 1-1.668-4.39 5.756 5.756 0 0 1 1.668-4.39 5.571 5.571 0 0 1 4.127-1.756 5.264 5.264 0 0 1 4.214 1.842 7.506 7.506 0 0 1 1.581 5.093 5.486 5.486 0 0 1-3.249 4.742m4.127-7.376a7.22 7.22 0 0 0-.7-1.932 7.322 7.322 0 0 0-2.636-2.551 6.864 6.864 0 0 0-3.425-.878 6.758 6.758 0 0 0-5.005 2.02 7.54 7.54 0 0 0-2.02 5.181 7.16 7.16 0 0 0 .527 2.722 6.79 6.79 0 0 0 1.493 2.371 5.948 5.948 0 0 0 2.283 1.581 7.6 7.6 0 0 0 2.81.527 8.158 8.158 0 0 0 2.546-.439 6.933 6.933 0 0 0 3.161-2.546v2.722h1.23v-6.148a13.336 13.336 0 0 0-.263-2.634m-27.837 8.78V23.339h1.229v12.469h1.4a4.757 4.757 0 0 0 2.2-.527 7.022 7.022 0 0 0 1.932-2.02l2.283-3.249h1.4l-2.283 3.512c-.351.527-.7.966-1.054 1.4a9.174 9.174 0 0 1-1.054.878 4.188 4.188 0 0 1 4.039 4.39v3.688h-1.223v-3.241a4.384 4.384 0 0 0-.878-2.9 3.3 3.3 0 0 0-2.634-.966h-3.864v7.113Zm50.929-6.235a7.434 7.434 0 0 1 1.581-5 5.133 5.133 0 0 1 4.215-1.844 5.567 5.567 0 0 1 4.127 1.756 6.243 6.243 0 0 1 1.668 4.39 6.008 6.008 0 0 1-1.668 4.39 5.567 5.567 0 0 1-4.127 1.756 5.2 5.2 0 0 1-2.546-.615 5.137 5.137 0 0 1-3.25-4.833m-1.229.088v10.45h1.229v-7.025a7.434 7.434 0 0 0 3.161 2.546 6.237 6.237 0 0 0 2.546.439 7.6 7.6 0 0 0 2.81-.527 5.934 5.934 0 0 0 2.283-1.581 8.308 8.308 0 0 0 1.493-2.371 7.58 7.58 0 0 0 .527-2.81 6.808 6.808 0 0 0-2.02-5.181 6.438 6.438 0 0 0-5.005-2.02 6.641 6.641 0 0 0-3.425.878 7.336 7.336 0 0 0-2.634 2.546 5.142 5.142 0 0 0-.7 1.932 7.2 7.2 0 0 0-.263 2.722m-16.247-.086a7.291 7.291 0 0 1 1.581-5 5.133 5.133 0 0 1 4.215-1.844 5.567 5.567 0 0 1 4.127 1.756 6.243 6.243 0 0 1 1.668 4.39 6.008 6.008 0 0 1-1.668 4.39 5.567 5.567 0 0 1-4.127 1.756 5.2 5.2 0 0 1-2.546-.615 5.137 5.137 0 0 1-3.25-4.833m-1.142.088v10.45h1.229v-7.025a6.646 6.646 0 0 0 3.161 2.459 6.237 6.237 0 0 0 2.546.439 7.615 7.615 0 0 0 2.81-.527 5.935 5.935 0 0 0 2.283-1.581 8.308 8.308 0 0 0 1.493-2.371 7.6 7.6 0 0 0 .527-2.81 6.808 6.808 0 0 0-2.02-5.181 6.438 6.438 0 0 0-5.005-2.02 6.641 6.641 0 0 0-3.425.878 7.336 7.336 0 0 0-2.634 2.546 5.142 5.142 0 0 0-.7 1.932 7.668 7.668 0 0 0-.263 2.81m47.856-2.722a7.218 7.218 0 0 0-.7-1.932 6.918 6.918 0 0 0-5.971-3.333 6.622 6.622 0 0 0-5.005 2.02 7.089 7.089 0 0 0-2.02 5.093 7.985 7.985 0 0 0 .527 2.81 8.326 8.326 0 0 0 1.493 2.371 5.948 5.948 0 0 0 2.283 1.581 7.6 7.6 0 0 0 2.81.527 7.188 7.188 0 0 0 5.8-2.986v2.722h1.229v-6.149c-.176-.878-.263-1.756-.439-2.722"/><path fill="#006495" d="M42.298 20.441a.322.322 0 0 1-.141-.014.335.335 0 0 1-.119-.07 1.6 1.6 0 0 1-.878-.615c-.615-1.054-.439-1.142 2.634-3.864l2.2-1.844c-5.708 3.425-5.8 3.337-6.41 3.161a1.4 1.4 0 0 1-.79-.615c-.615-1.054-.439-1.142 2.9-4.039l2.459-2.02c-3.951 2.283-4.039 2.283-4.566 2.107a1.6 1.6 0 0 1-.878-.615c-.439-.79-.527-.966 3.161-4.83-1.756.966-1.844.966-2.283.878a1.277 1.277 0 0 1-.878-.615c-.439-.439-.439-.439.439-3.6a12.71 12.71 0 0 0 .439-1.756c-.263.088-.878-.878.176-1.229.775-.353 1.745-1.055 2.447.086.263.527.351.527-.351 3.161l1.668-1.051C48.62.069 48.62.069 49.238.245a1.6 1.6 0 0 1 .875.612c.527.878.527.878-3.161 4.917l.878-.527C56.699-.019 56.699-.019 57.401.245a1.4 1.4 0 0 1 .79.615c.615 1.054.439 1.142-2.986 4.039l-2.459 2.02c4.39-2.546 4.478-2.546 5.005-2.371a1.4 1.4 0 0 1 .79.615c.615 1.054.439 1.142-2.634 3.776L53.8 10.783c3.337-1.932 3.425-1.844 3.951-1.756a1.4 1.4 0 0 1 .79.615c.439.79.527.878-2.459 4.478 1.142-.615 1.229-.527 1.668-.527a1.4 1.4 0 0 1 .968 1.664 1.145 1.145 0 0 1-.79.878c-.263.088-2.107 1.229-3.425 2.02-3.951 2.371-3.951 2.371-4.566 2.2a1.6 1.6 0 0 1-.878-.615c-.439-.79-.527-.878 2.546-4.478l-1.054.615c-6.674 3.951-7.727 4.566-8.254 4.566M35.185 43.974V30.012h1.137v2.722a6.039 6.039 0 0 1 2.107-2.107 6.339 6.339 0 0 1 2.81-.7h.351a1.118 1.118 0 0 1 .527.088v1.134h-.088a6.854 6.854 0 0 1-.878-.088 4.264 4.264 0 0 0-3.329 1.498 5.821 5.821 0 0 0-1.317 3.951v7.376Zm-6.763-13.962h1.229v7.9a6.541 6.541 0 0 1-1.579 4.657 5.194 5.194 0 0 1-4.127 1.668 5.194 5.194 0 0 1-4.123-1.668 6.817 6.817 0 0 1-1.581-4.654v-7.9h1.229v8.254a4.677 4.677 0 0 0 1.229 3.512 4.068 4.068 0 0 0 3.249 1.317 4.511 4.511 0 0 0 3.249-1.317 4.677 4.677 0 0 0 1.225-3.515ZM2.608 32.649a5.571 5.571 0 0 1 4.127-1.756 5.889 5.889 0 0 1 2.459.527 4.56 4.56 0 0 1 1.844 1.581l-9.659 6.5a6.289 6.289 0 0 1-.528-2.552 6.149 6.149 0 0 1 1.756-4.3m9.835 4.478a6.525 6.525 0 0 1-1.756 4.3 5.123 5.123 0 0 1-4.039 1.668 5.571 5.571 0 0 1-4.125-1.755 7.675 7.675 0 0 1-.7-.878l10.8-7.2a7.322 7.322 0 0 0-2.546-2.634 6.641 6.641 0 0 0-3.429-.879 7.022 7.022 0 0 0-5.093 2.107 7.9 7.9 0 0 0-1.932 5.181 7.6 7.6 0 0 0 .527 2.812A7.023 7.023 0 0 0 1.73 42.22a6.858 6.858 0 0 0 2.282 1.491 7.025 7.025 0 0 0 2.634.527 6.911 6.911 0 0 0 4.917-2.02 7.728 7.728 0 0 0 2.2-5.093Zm33.1-.176a5.748 5.748 0 0 0 1.668 4.39 5.568 5.568 0 0 0 7.9.263l.263-.263a6.558 6.558 0 0 0 0-8.693 5.672 5.672 0 0 0-7.991-.263l-.26.264a5.959 5.959 0 0 0-1.581 4.3m-1.317.088a7.6 7.6 0 0 1 .527-2.81 7.023 7.023 0 0 1 1.581-2.371 5.935 5.935 0 0 1 2.29-1.58 7.07 7.07 0 0 1 5.356 0 5.935 5.935 0 0 1 2.283 1.581 8.608 8.608 0 0 1 1.581 2.371 7.757 7.757 0 0 1 0 5.62 5.935 5.935 0 0 1-1.581 2.283 5.935 5.935 0 0 1-2.283 1.581 7.3 7.3 0 0 1-5.444 0 5.935 5.935 0 0 1-2.283-1.581 7.032 7.032 0 0 1-1.581-2.371c-.176-.878-.351-1.844-.439-2.722M149.768 24.17a3.651 3.651 0 0 1-.241 1.5 3.724 3.724 0 0 1-.837 1.285 3.829 3.829 0 0 1-1.293.849 3.881 3.881 0 0 1-1.531.272 4.083 4.083 0 0 1-2.842-1.19 3.891 3.891 0 0 1 .067-5.587 4.088 4.088 0 0 1 2.869-1.121 3.893 3.893 0 0 1 1.521.31 3.816 3.816 0 0 1 1.269.877 3.723 3.723 0 0 1 .807 1.3 3.681 3.681 0 0 1 .212 1.506m-.568 0a3.193 3.193 0 0 0-.532-1.824 3.3 3.3 0 0 0-1.483-1.222 3.376 3.376 0 0 0-3.644.677 3.228 3.228 0 0 0-.92 1.67 3.185 3.185 0 0 0 .188 1.888 3.272 3.272 0 0 0 1.234 1.463 3.353 3.353 0 0 0 4.166-.41 3.225 3.225 0 0 0 .981-2.253Z"/><path fill="#006495" d="M144.543 24.111v-1.81c0-.245.083-.355.33-.355a11.041 11.041 0 0 1 1.978.085c.671.135.977.6.871 1.431a.893.893 0 0 1-.114.437.86.86 0 0 1-.309.321c-.2.111-.236.27-.083.477a10.9 10.9 0 0 1 .659 1c.094.171.27.392 0 .575a.643.643 0 0 1-.4.031.657.657 0 0 1-.342-.214 61.29 61.29 0 0 0-.718-1.137 1.045 1.045 0 0 0-.476-.376 1 1 0 0 0-.6-.04c-.176 0-.188.159-.188.294v1.137c0 .378-.095.33-.318.33s-.33-.074-.33-.318c.035-.624.035-1.248.035-1.871m1.437-1.345c-.847 0-.882 0-.8.77v.074c0 .1 0 .171.154.171a2.837 2.837 0 0 0 1.425-.147.423.423 0 0 0 .191-.185.445.445 0 0 0 .045-.267c0-.184-.153-.294-.33-.342a2.04 2.04 0 0 0-.683-.074"/></g><path fill="#fe7724" d="M45.808 62.92h.3l-.4 1.168q-.572 1.648-1.932 1.648a1.059 1.059 0 0 1-.484-.112.752.752 0 0 1-.336-.32 1.246 1.246 0 0 1-.1-.5 6.111 6.111 0 0 1 .236-1.308l.544-2.128h-3.144l-1.036 4.144h-1.392l1.92-6.864a2.151 2.151 0 0 0 .112-.592q0-.4-.336-.4a.832.832 0 0 0-.648.376 4.515 4.515 0 0 0-.6 1.256l-.208.592h-.3l.4-1.168q.576-1.648 1.936-1.648a.821.821 0 0 1 .912.944 5.366 5.366 0 0 1-.224 1.3l-.448 1.744s2.116.94 3.136 0 .944-3.76.944-3.76a5.028 5.028 0 0 0 1.456-.224l-1.988 7.084a2.658 2.658 0 0 0-.112.624q0 .368.336.368a.832.832 0 0 0 .648-.376 4.515 4.515 0 0 0 .6-1.256Zm8.368-.016h.3l-.4 1.168a2.8 2.8 0 0 1-.816 1.272 1.636 1.636 0 0 1-1.024.392 1.167 1.167 0 0 1-.524-.112.892.892 0 0 1-.352-.3 1.067 1.067 0 0 1-.144-.56 2.921 2.921 0 0 1 .112-.752q.112-.416.144-.528l.288-1.152a8.629 8.629 0 0 1-1.56 2.6 2.322 2.322 0 0 1-1.656.808 1.3 1.3 0 0 1-1.12-.528 2.343 2.343 0 0 1-.384-1.408 7.427 7.427 0 0 1 .688-2.9 8.746 8.746 0 0 1 1.792-2.72 3.188 3.188 0 0 1 2.24-1.12.881.881 0 0 1 .7.32 1.55 1.55 0 0 1 .32.9l.256-.992a5.484 5.484 0 0 0 1.472-.224l-2 7.072-.064.248a1.367 1.367 0 0 0-.048.344q0 .4.352.4.7 0 1.232-1.632Zm-5.168 2.32a1.672 1.672 0 0 0 1.072-.688 8.855 8.855 0 0 0 1.224-1.832 13.488 13.488 0 0 0 .984-2.44l.288-1.136a3 3 0 0 0 .016-.352 1.959 1.959 0 0 0-.232-1.032.724.724 0 0 0-.648-.376q-.688 0-1.456 1.064a9.707 9.707 0 0 0-1.288 2.624 9.3 9.3 0 0 0-.52 2.936 2.257 2.257 0 0 0 .144.944.451.451 0 0 0 .416.288Zm15.664-2.32h.3l-.4 1.168a2.648 2.648 0 0 1-.8 1.28 1.675 1.675 0 0 1-1.04.384 1.167 1.167 0 0 1-.528-.112.892.892 0 0 1-.352-.3 1.067 1.067 0 0 1-.144-.56 2.921 2.921 0 0 1 .112-.752q.112-.416.144-.528l1.232-4.88-4.044 6.988h-.3l-.276-6.98a25.972 25.972 0 0 1-1.12 4.784 3.827 3.827 0 0 1-1.488 2.132 1.924 1.924 0 0 1-.928.208.915.915 0 0 1-.6-.168.564.564 0 0 1-.2-.456.971.971 0 0 1 .28-.672.874.874 0 0 1 .664-.3.531.531 0 0 1 .392.136.487.487 0 0 1 .136.36 1.191 1.191 0 0 1-.448.864h.016a1.546 1.546 0 0 0 .656-.256 4.617 4.617 0 0 0 1.472-2.584 46.2 46.2 0 0 0 1.12-5.368 4.4 4.4 0 0 0 1.312-.224l.16 6.5 3.472-6.016.064-.256a5.484 5.484 0 0 0 1.472-.224l-2 7.072-.064.248a1.367 1.367 0 0 0-.048.344q0 .4.352.4.7 0 1.232-1.632Zm13.62-8.624a7.189 7.189 0 0 0-3.036 1.68 10.383 10.383 0 0 0-2.456 3.252 9.15 9.15 0 0 0-.96 4.1 3.31 3.31 0 0 0 .288 1.64.95.95 0 0 0 .864.46 1.927 1.927 0 0 0 1.5-.78 5.58 5.58 0 0 0 1.02-1.92 7.064 7.064 0 0 0 .36-2.128q0-1.616-1.04-1.616a1.51 1.51 0 0 0-1.024.456 3.7 3.7 0 0 0-.864 1.5l-.256-.1a3.436 3.436 0 0 1 1.128-1.784 2.56 2.56 0 0 1 1.544-.536 1.848 1.848 0 0 1 1.464.632 2.6 2.6 0 0 1 .552 1.768 4.672 4.672 0 0 1-.64 2.352 5.084 5.084 0 0 1-1.712 1.8 4.2 4.2 0 0 1-2.288.68 2.137 2.137 0 0 1-1.776-.724 3.382 3.382 0 0 1-.576-2.14 7.447 7.447 0 0 1 1.288-4.208 11.378 11.378 0 0 1 3.128-3.176 9.254 9.254 0 0 1 3.392-1.528Zm11.468 8.624h.3l-.4 1.168a2.8 2.8 0 0 1-.816 1.272 1.636 1.636 0 0 1-1.024.392 1.167 1.167 0 0 1-.528-.112.892.892 0 0 1-.352-.3 1.067 1.067 0 0 1-.144-.56 2.921 2.921 0 0 1 .116-.752q.112-.416.144-.528l1.1-4.352a3.182 3.182 0 0 0 .016-.368 1.916 1.916 0 0 0-.232-1.024.754.754 0 0 0-.68-.368 1.083 1.083 0 0 0-.88.48 4.227 4.227 0 0 0-.604 1.14q-.24.664-.512 1.688l-.128.48q-.336 1.232-.6 2.008a6.84 6.84 0 0 1-.656 1.408 2.618 2.618 0 0 1-.936.936 1.861 1.861 0 0 1-.9.224.915.915 0 0 1-.6-.168.564.564 0 0 1-.2-.456.971.971 0 0 1 .28-.672.874.874 0 0 1 .668-.304.531.531 0 0 1 .392.136.487.487 0 0 1 .136.36 1.191 1.191 0 0 1-.448.864h.02a1.917 1.917 0 0 0 1.18-.872 6.584 6.584 0 0 0 .792-1.6q.3-.872.584-2.024l.1-.336a11.161 11.161 0 0 1 1.012-2.736 1.533 1.533 0 0 1 1.332-.864.958.958 0 0 1 .76.32 1.42 1.42 0 0 1 .312.88l.256-.976a5.484 5.484 0 0 0 1.472-.224l-2 7.072-.064.248a1.367 1.367 0 0 0-.048.344q0 .4.352.4.7 0 1.232-1.632Zm7.744-4.784a2.757 2.757 0 0 1-1.456 2.272 13.343 13.343 0 0 1-3.328 1.584 7.216 7.216 0 0 0-.176 1.552q0 1.536 1.1 1.536a3.038 3.038 0 0 0 2.464-1.6l.256.128a4.9 4.9 0 0 1-1.38 1.512 3.074 3.074 0 0 1-1.832.632 2.064 2.064 0 0 1-1.552-.576 2.316 2.316 0 0 1-.56-1.68 6.609 6.609 0 0 1 .712-2.744 7.828 7.828 0 0 1 1.928-2.6 3.918 3.918 0 0 1 2.64-1.072 1.3 1.3 0 0 1 .848.272.95.95 0 0 1 .336.784Zm-1.536-.752a1.777 1.777 0 0 0-1.144.6 6.61 6.61 0 0 0-1.184 1.592 8.864 8.864 0 0 0-.84 2.112 8.343 8.343 0 0 0 2.176-1.024 3.242 3.242 0 0 0 .92-1.128 3.189 3.189 0 0 0 .328-1.432 1.671 1.671 0 0 0-.064-.576.206.206 0 0 0-.192-.144Zm13.888 5.552-.4 1.168q-.576 1.648-1.936 1.648a1.079 1.079 0 0 1-.992-.432 1.067 1.067 0 0 1-.144-.56 4.331 4.331 0 0 1 .272-1.248l1.52-4.576a2.728 2.728 0 0 0 .16-.848q0-.5-.352-.5-.912 0-2.056 2.088a30.861 30.861 0 0 0-2.216 5.532l.016-.1-.112.42h-1.44l2-6.592a2.662 2.662 0 0 0 .16-.816q0-.528-.448-.528-.592 0-1.328.936a12 12 0 0 0-1.448 2.552 25.117 25.117 0 0 0-1.24 3.568l-.224.88h-1.392l1.92-6.864a3.16 3.16 0 0 0 .112-.592q0-.4-.336-.4a.832.832 0 0 0-.648.376 4.515 4.515 0 0 0-.6 1.256l-.208.592h-.304l.4-1.168q.576-1.648 1.936-1.648a.835.835 0 0 1 .928.96 5.36 5.36 0 0 1-.24 1.28l-.512 2.032a12.423 12.423 0 0 1 1.808-3.3 2.5 2.5 0 0 1 1.9-.968q1.056 0 1.056 1.12a5.057 5.057 0 0 1-.224 1.3l-.572 2.136a19.015 19.015 0 0 1 1.264-2.664 4.931 4.931 0 0 1 1.208-1.44 2.245 2.245 0 0 1 1.368-.456q1.12 0 1.12 1.2a4.109 4.109 0 0 1-.224 1.216l-1.552 4.672a2.355 2.355 0 0 0-.128.608.339.339 0 0 0 .384.384.82.82 0 0 0 .616-.36 4.443 4.443 0 0 0 .616-1.272l.208-.592Zm2.3-.592q.336-1.264.576-2.536t.512-2.968q.048-.32.24-1.424a17.849 17.849 0 0 1 .384-1.776.872.872 0 0 1 .272-.464.679.679 0 0 1 .448-.16.755.755 0 0 1 .544.184.606.606 0 0 1 .192.456.865.865 0 0 1-.064.352q-.208.72-.9 2.576-.616 1.644-1.08 3.024t-.832 2.784Zm-1.388 2.592a1.2 1.2 0 0 1 .36-.856 1.112 1.112 0 0 1 .824-.376.772.772 0 0 1 .592.24.835.835 0 0 1 .224.592 1.165 1.165 0 0 1-.368.848 1.148 1.148 0 0 1-.832.368.765.765 0 0 1-.576-.232.807.807 0 0 1-.224-.584Z"/></svg>