<svg xmlns="http://www.w3.org/2000/svg" width="16.973" height="16.975" viewBox="0 0 16.973 16.975"><defs><clipPath id="a"><path fill="#ababab" d="M0 0h16.975v16.973H0z"/></clipPath></defs><g clip-path="url(#a)" transform="rotate(90 8.486 8.487)"><path fill="#FE7724" d="M10 2.847a1.846 1.846 0 0 0 0 2.533l1.267 1.192a10.98 10.98 0 0 1-4.694 4.694L5.379 10a1.846 1.846 0 0 0-2.533 0L.909 11.936a1.779 1.779 0 0 0 .075 2.533l1.863 1.863C6.571 20.057 20.056 6.5 16.331 2.847L14.468.985a1.714 1.714 0 0 0-2.533 0L10 2.847ZM7.167.984c.6-.149.373-1.118-.3-.969A9.659 9.659 0 0 0 .015 6.87c-.149.671.82.894.969.3A8.784 8.784 0 0 1 7.167.984Zm.6 2.31a.5.5 0 0 0-.224-.969 7.378 7.378 0 0 0-5.219 5.216.5.5 0 0 0 .969.224 6.435 6.435 0 0 1 4.47-4.47Zm2.98.224 1.863-1.863a.81.81 0 0 1 1.118 0l1.863 1.863c2.751 2.756-9.318 14.826-12.074 12.069l-1.863-1.863a.81.81 0 0 1 0-1.118l1.863-1.863a.774.774 0 0 1 1.192 0l1.415 1.417a.579.579 0 0 0 .6.149 11.955 11.955 0 0 0 5.587-5.587.486.486 0 0 0-.149-.6L10.743 4.71a.774.774 0 0 1 0-1.192Z"/></g></svg>