<svg xmlns="http://www.w3.org/2000/svg" width="35" height="35" viewBox="0 0 35 35"><defs><clipPath id="a"><path d="M0 0h14.512v14.51H0z" data-name="Прямоугольник 376"/></clipPath></defs><g data-name="Сгруппировать 1481"><g fill="none" stroke="#bfbfbf" data-name="Прямоугольник 1025"><rect width="35" height="35" stroke="none" rx="17.5"/><rect width="34" height="34" x=".5" y=".5" rx="17"/></g><g data-name="Сгруппировать 1478"><g clip-path="url(#a)" data-name="Сгруппировать 131" transform="rotate(90 7.255 17.255)"><path d="M8.547 2.434a1.578 1.578 0 0 0 0 2.165L9.63 5.618a9.387 9.387 0 0 1-4.012 4.013L4.6 8.548a1.578 1.578 0 0 0-2.165 0L.777 10.2a1.52 1.52 0 0 0 .064 2.165l1.592 1.592c3.185 3.189 14.713-8.403 11.528-11.523L12.369.841a1.466 1.466 0 0 0-2.165 0L8.547 2.434ZM6.127.841c.509-.127.319-.955-.255-.828a8.257 8.257 0 0 0-5.859 5.86c-.127.573.7.764.828.255A7.509 7.509 0 0 1 6.127.841Zm.509 1.974a.425.425 0 0 0-.191-.828 6.307 6.307 0 0 0-4.458 4.459.425.425 0 0 0 .828.191 5.5 5.5 0 0 1 3.822-3.821Zm2.548.191 1.592-1.592a.693.693 0 0 1 .955 0l1.592 1.592c2.358 2.357-7.96 12.675-10.316 10.318l-1.593-1.592a.693.693 0 0 1 0-.955l1.593-1.593a.662.662 0 0 1 1.019 0l1.21 1.21a.5.5 0 0 0 .509.127 10.22 10.22 0 0 0 4.776-4.776.416.416 0 0 0-.127-.509l-1.21-1.21a.662.662 0 0 1 0-1.019Z" data-name="Контур 3183"/></g></g></g></svg>