<svg xmlns="http://www.w3.org/2000/svg" width="60" height="60" viewBox="0 0 60 60"><defs><clipPath id="a"><path fill="none" d="M0 0h16.835v10.662H0z"/></clipPath></defs><g fill="#fff" stroke="#d8d8d8"><rect width="60" height="60" stroke="none" rx="30"/><rect width="59" height="59" x=".5" y=".5" fill="none" rx="29.5"/></g><g clip-path="url(#a)" transform="rotate(90 7.918 27.831)"><path d="M16.835 5.331a.653.653 0 0 0-.158-.386l-4.49-4.77a.562.562 0 0 0-.793-.022.578.578 0 0 0-.022.794l3.6 3.823H.561a.561.561 0 0 0 0 1.122h14.415l-3.6 3.823a.587.587 0 0 0 .022.793.562.562 0 0 0 .793-.022l4.489-4.77a.5.5 0 0 0 .158-.386Z"/></g></svg>