<svg xmlns="http://www.w3.org/2000/svg" width="17.492" height="15.407" viewBox="0 0 17.492 15.407"><defs><clipPath id="a"><path fill="#fe7724" d="M0 0h17.492v15.407H0z"/></clipPath></defs><g clip-path="url(#a)"><path fill="#fe7724" d="M17.159 11.836 10.771 1.141a2.367 2.367 0 0 0-4.05 0L.334 11.836a2.368 2.368 0 0 0 2.025 3.571h12.775a2.3 2.3 0 0 0 2.043-1.2 2.335 2.335 0 0 0-.018-2.375ZM8.746 12.9a.994.994 0 1 1 .994-.994.99.99 0 0 1-.994.994m1.068-7.562-.35 4.1a.718.718 0 0 1-.773.644.708.708 0 0 1-.644-.644l-.35-4.1a1.072 1.072 0 1 1 2.135-.184.628.628 0 0 0-.018.184Z"/></g></svg>