<svg xmlns="http://www.w3.org/2000/svg" width="50" height="50" viewBox="0 0 50 50"><defs><clipPath id="a"><path fill="#fff" d="M0 0h16.835v10.662H0z"/></clipPath></defs><g transform="translate(-326 -1262)"><rect width="50" height="50" fill="#fe5024" rx="25" transform="translate(326 1262)"/><g clip-path="url(#a)" transform="translate(343 1281)"><path fill="#fff" d="M16.835 5.331a.653.653 0 0 0-.158-.386l-4.49-4.77a.562.562 0 0 0-.793-.022.578.578 0 0 0-.022.794l3.6 3.823H.561a.561.561 0 0 0 0 1.122h14.415l-3.6 3.823a.587.587 0 0 0 .022.793.562.562 0 0 0 .793-.022l4.489-4.77a.5.5 0 0 0 .158-.386Z"/></g></g></svg>