<svg xmlns="http://www.w3.org/2000/svg" viewBox="0 0 50 50"><defs><clipPath id="a"><path fill="none" d="M0 0h16.835v10.662H0z"/></clipPath></defs><g fill="#fff" stroke="#dcdcdc"><rect width="50" height="50" stroke="none" rx="25"/><rect width="49" height="49" x=".5" y=".5" fill="none" rx="24.5"/></g><g clip-path="url(#a)" transform="translate(16.998 19)"><path d="M0 5.331a.653.653 0 0 1 .158-.386L4.647.175a.562.562 0 0 1 .794-.022.578.578 0 0 1 .022.794L1.859 4.77h14.415a.561.561 0 0 1 0 1.122H1.859l3.6 3.823a.587.587 0 0 1-.022.793.562.562 0 0 1-.793-.022L.158 5.717A.5.5 0 0 1 0 5.331Z"/></g></svg>