<svg xmlns="http://www.w3.org/2000/svg" width="52.918" height="44.398" viewBox="0 0 52.918 44.398"><defs><clipPath id="a"><path fill="none" d="M0 0h52.918v44.398H0z"/></clipPath></defs><g transform="translate(-1250 -7579.434)"><circle cx="5.5" cy="5.5" r="5.5" fill="#fe7724" transform="translate(1261 7581.434)"/><g fill="none" stroke="#fff" stroke-linecap="round" stroke-linejoin="round" clip-path="url(#a)" transform="translate(1250 7579.434)"><path d="M40.863 11.963a6.786 6.786 0 0 1-6.66 6.906 6.786 6.786 0 0 1-6.66-6.906V8.016a6.786 6.786 0 0 1 6.661-6.906 6.786 6.786 0 0 1 6.66 6.906Z"/><circle cx="5.55" cy="5.55" r="5.55" transform="translate(10.895 2.22)"/><path d="M22.032 25.842A13.316 13.316 0 0 0 1.15 34.078a2.2 2.2 0 0 0 2.2 2.551h10.875M34.205 25.529h0a17.763 17.763 0 0 0-17.582 15.235 2.233 2.233 0 0 0 2.218 2.524h30.727a2.233 2.233 0 0 0 2.218-2.524 17.763 17.763 0 0 0-17.581-15.235Z"/></g></g></svg>