<svg xmlns="http://www.w3.org/2000/svg" width="46" height="46" viewBox="0 0 46 46"><defs><clipPath id="a"><path fill="none" d="M0 0h46v46H0z" transform="translate(0 .008)"/></clipPath></defs><g transform="translate(-220 -6789.999)"><circle cx="10" cy="10" r="10" fill="#fe7724" transform="translate(233 6803)"/><g fill="none" stroke="#163567" stroke-linecap="round" stroke-linejoin="round" clip-path="url(#a)" transform="translate(220 6789.992)"><path d="M8.722 15.006 5.353 9.397l4.044-4.043 5.607 3.37v.01a14.988 14.988 0 0 1 3.432-1.43l1.582-6.35h5.72l1.582 6.35a14.988 14.988 0 0 1 3.433 1.43v-.01l5.606-3.37 4.044 4.043-3.371 5.609h-.008a15.2 15.2 0 0 1 1.429 3.43l6.349 1.584v5.72l-6.349 1.582a15.2 15.2 0 0 1-1.43 3.432h.008l3.371 5.609-4.044 4.044-5.605-3.373v-.01a14.988 14.988 0 0 1-3.433 1.43l-1.582 6.351h-5.72l-1.582-6.351a14.988 14.988 0 0 1-3.432-1.43v.01l-5.607 3.371-4.044-4.044 3.369-5.607h.01a15.2 15.2 0 0 1-1.43-3.432L.953 25.74v-5.72l6.349-1.584a15.2 15.2 0 0 1 1.43-3.432Z"/><circle cx="10" cy="10" r="10" transform="translate(13 13.008)"/></g></g></svg>