<svg xmlns="http://www.w3.org/2000/svg" width="48" height="44" viewBox="0 0 48 44"><defs><clipPath id="a"><path fill="none" stroke="#163567" d="M0 0h48v44H0z"/></clipPath></defs><g transform="translate(-549 -6809)"><circle cx="10" cy="10" r="10" fill="#fe7724" transform="translate(576 6832)"/><g fill="none" stroke="#fff" stroke-linecap="round" stroke-linejoin="round" clip-path="url(#a)" transform="translate(549 6809)"><path d="M22.18 39H3a2 2 0 0 1-2-2V7a2 2 0 0 1 2-2h36a2 2 0 0 1 2 2v10.5M1 15h40M9 1v6M33 1v6"/><circle cx="10" cy="10" r="10" transform="translate(27 23)"/><path d="M37 27v6M41 37l-4-4"/></g></g></svg>