<svg xmlns="http://www.w3.org/2000/svg" width="52" height="47" viewBox="0 0 52 47"><defs><clipPath id="a"><path fill="none" d="M0 0h52v47H0z" transform="translate(-.378 -.07)"/></clipPath></defs><path fill="#fe7724" d="M20.341 5.098v25.8l6.918-6.73h19.819l2.618-1.683.571-3.219V3.75l-3.188-2.619-24.176.393Z"/><g clip-path="url(#a)" transform="translate(.378 .07)"><path fill="none" stroke="#163567" stroke-linecap="round" stroke-linejoin="round" d="M16.001 16.001H5.334a4.266 4.266 0 0 0-4.267 4.267v14.933a4.266 4.266 0 0 0 4.267 4.267h19.2l6.4 6.4V28.801"/><path fill="none" stroke="#163567" stroke-linecap="round" stroke-linejoin="round" d="M45.868 24.535h-19.2l-6.4 6.4V5.334a4.266 4.266 0 0 1 4.267-4.267h21.333a4.266 4.266 0 0 1 4.267 4.267v14.933a4.266 4.266 0 0 1-4.267 4.268Z"/><path fill="#fff" d="M29.868 11.734a1.067 1.067 0 1 1-1.066-1.067 1.067 1.067 0 0 1 1.067 1.067M36.269 11.734a1.067 1.067 0 1 1-1.066-1.067 1.067 1.067 0 0 1 1.067 1.067M42.669 11.734a1.067 1.067 0 1 1-1.066-1.067 1.067 1.067 0 0 1 1.067 1.067"/></g></svg>