<svg xmlns="http://www.w3.org/2000/svg" width="43" height="39" viewBox="0 0 43 39"><defs><clipPath id="a"><path fill="none" d="M0 0h43v39H0z"/></clipPath></defs><path fill="#fe7724" d="M41.49 16.847H29.514l-2.735 2.075-1.32 2.546.566 3.206 3.489 2.829H41.49ZM.941 3.27v2.357l1.98 2.263h29.987v-6.6L30.456.63H3.392Z"/><g clip-path="url(#a)"><path fill="none" stroke="#163567" stroke-linecap="round" stroke-linejoin="round" d="M.886 7.977v26.591a3.556 3.556 0 0 0 3.545 3.545h33.682a3.556 3.556 0 0 0 3.545-3.545V9.75a1.778 1.778 0 0 0-1.772-1.773H4.431M.886 11.523V4.432"/><path fill="none" stroke="#163567" stroke-linecap="round" stroke-linejoin="round" d="M31.023 27.477H41.66V16.841H31.023a5.318 5.318 0 0 0 0 10.636Z"/><path fill="#fff" d="M32.795 22.159a1.773 1.773 0 1 1-1.772-1.773 1.773 1.773 0 0 1 1.773 1.773"/><path fill="none" stroke="#163567" stroke-linecap="round" stroke-linejoin="round" d="M4.431.886a3.545 3.545 0 0 0 0 7.091M32.796 7.977V2.659A1.773 1.773 0 0 0 31.023.886H4.432"/></g></svg>