<svg xmlns="http://www.w3.org/2000/svg" width="18.964" height="23.298" viewBox="0 0 18.964 23.298"><defs><clipPath id="a"><path fill="#88511a" d="M0 0h18.964v23.298H0z"/></clipPath></defs><g fill="#88511a" fill-rule="evenodd" clip-path="url(#a)"><path d="M18.964 9.644A9.562 9.562 0 0 0 9.482-.001 9.562 9.562 0 0 0 0 9.644a9.856 9.856 0 0 0 2.763 6.827.7.7 0 0 0 .542.217.741.741 0 0 0 .759-.759.828.828 0 0 0-.217-.542 8.213 8.213 0 0 1-2.33-5.688 8.036 8.036 0 0 1 7.965-8.074 8.085 8.085 0 0 1 5.635 13.762L8.4 22.16l1.082 1.139 6.718-6.828a9.856 9.856 0 0 0 2.763-6.827"/><path d="m13.87 11.487-2.384-6.068-2 3.576-1.951-3.576-2.384 6.068h-.7v.921h3.576v-.921h-.549L8.02 9.97l1.463 2.547L11 9.97l.542 1.517H11v.921h3.578v-.921Z"/></g></svg>