<svg xmlns="http://www.w3.org/2000/svg" width="21.911" height="14.872" viewBox="0 0 21.911 14.872"><defs><clipPath id="a"><path fill="#3a68b9" d="M0 0h21.911v14.872H0z"/></clipPath></defs><g clip-path="url(#a)"><path fill="#3a68b9" fill-rule="evenodd" d="M17.654 1.09a2.6 2.6 0 0 0-1.57-.7 33.706 33.706 0 0 0-10.258 0 2.5 2.5 0 0 0-1.535.7C3.908 2.346 3.559 3.6 3.21 4.893a.974.974 0 0 0-.628-.209h-1.5A1.065 1.065 0 0 0 0 5.765a1.08 1.08 0 0 0 1.082 1.047h.7A4.7 4.7 0 0 0 1.4 8.836c-.035 1.814-.035 3.628-.035 5.443a.588.588 0 0 0 .593.593h2.717a.588.588 0 0 0 .593-.593v-.733h11.375v.733a.6.6 0 0 0 .628.593h2.687a.6.6 0 0 0 .628-.593c0-1.814-.035-3.628-.035-5.443a4.7 4.7 0 0 0-.384-2.024h.7a1.073 1.073 0 0 0 1.047-1.047 1.058 1.058 0 0 0-1.047-1.082h-1.538a.948.948 0 0 0-.593.209c-.349-1.291-.7-2.547-1.082-3.8Zm-4.222 9.525H8.478a.558.558 0 1 0 0 1.117h4.954a.558.558 0 0 0 0-1.117m3.21-9.037c.279 1.047.558 2.128.872 3.21a63.069 63.069 0 0 0-13.084 0c.279-1.082.593-2.163.872-3.21a32.574 32.574 0 0 1 11.339 0Zm-12 5.9a1.206 1.206 0 0 1 1.22 1.183 1.236 1.236 0 0 1-1.221 1.221 1.206 1.206 0 0 1-1.187-1.221 1.176 1.176 0 0 1 1.187-1.186m12.63 0a1.176 1.176 0 0 0-1.186 1.186 1.187 1.187 0 1 0 2.372 0 1.176 1.176 0 0 0-1.186-1.186"/></g></svg>