<svg xmlns="http://www.w3.org/2000/svg" width="19" height="19.549" viewBox="0 0 19 19.549"><path d="M9.5 0A9.639 9.639 0 0 0 0 9.774a9.639 9.639 0 0 0 9.5 9.774A9.639 9.639 0 0 0 19 9.774 9.639 9.639 0 0 0 9.5 0Zm2.407 13.313L9.5 10.837l-2.407 2.476a.719.719 0 0 1-1.032 0 .764.764 0 0 1 0-1.062l2.407-2.476-2.407-2.477a.764.764 0 0 1 0-1.062.719.719 0 0 1 1.032 0L9.5 8.712l2.407-2.476a.719.719 0 0 1 1.032 0 .77.77 0 0 1 0 1.062l-2.407 2.476 2.407 2.476a.77.77 0 0 1 0 1.062.711.711 0 0 1-1.032.001Z" opacity=".3"/></svg>