<svg xmlns="http://www.w3.org/2000/svg" width="69" height="69" viewBox="0 0 69 69"><defs><clipPath id="b"><path fill="#fff" d="M0 0h16.291v20.478H0z"/></clipPath><filter id="a" width="69" height="69" x="0" y="0" filterUnits="userSpaceOnUse"><feOffset dy="3"/><feGaussianBlur result="b" stdDeviation="3"/><feFlood flood-opacity=".161"/><feComposite in2="b" operator="in"/><feComposite in="SourceGraphic"/></filter></defs><g filter="url(#a)"><g fill="#fe7724" stroke="#fff" stroke-width="4" transform="translate(9 6)"><circle cx="25.5" cy="25.5" r="25.5" stroke="none"/><circle cx="25.5" cy="25.5" r="23.5" fill="none"/></g></g><g fill="#fff" fill-rule="evenodd" clip-path="url(#b)" transform="translate(26.354 21.261)"><path d="M8.147 0a8.157 8.157 0 0 1 7.308 11.726c-1.275 2.719-5.523 6.8-7.308 8.752-1.869-2.124-5.863-5.863-7.222-8.667A8.109 8.109 0 0 1 8.147 0Zm0 3.059a5.1 5.1 0 1 1-5.1 5.1 5.113 5.113 0 0 1 5.1-5.1"/><path d="M11.036 8.157a2.889 2.889 0 1 1-2.889-2.889 2.889 2.889 0 0 1 2.889 2.889"/></g></svg>